<svg xmlns="http://www.w3.org/2000/svg" width="120" height="120" viewBox="0 0 120 120" fill="none">
  <path d="M60 118.182C92.1329 118.182 118.182 92.1329 118.182 60C118.182 27.8671 92.1329 1.81818 60 1.81818C27.8671 1.81818 1.81818 27.8671 1.81818 60C1.81818 92.1329 27.8671 118.182 60 118.182Z" fill="#C3BDE9"/>
  <path d="M100.866 76.1909H98.8164C98.5784 76.1834 98.3528 76.0836 98.1871 75.9127C98.0215 75.7417 97.9289 75.513 97.9289 75.275C97.9289 75.037 98.0215 74.8083 98.1871 74.6373C98.3528 74.4664 98.5784 74.3666 98.8164 74.3591H100.866C101.104 74.3666 101.33 74.4664 101.496 74.6373C101.661 74.8083 101.754 75.037 101.754 75.275C101.754 75.513 101.661 75.7417 101.496 75.9127C101.33 76.0836 101.104 76.1834 100.866 76.1909ZM104.835 74.3591C104.333 74.3591 103.916 74.77 103.916 75.2718C103.916 75.78 104.333 76.19 104.835 76.19H115.882C116.057 75.5827 116.236 74.9755 116.392 74.3591H104.835ZM45.7964 107.184C45.7964 106.682 46.2073 106.265 46.7145 106.265H46.8691C47.3764 106.265 47.7873 106.682 47.7873 107.184C47.7873 107.685 47.3764 108.102 46.8691 108.102H46.7145C46.2073 108.102 45.7964 107.685 45.7964 107.184ZM68.1182 40.1909C68.1182 39.6836 68.5355 39.2727 69.0364 39.2727H76.7373C77.2445 39.2727 77.6554 39.6836 77.6554 40.1909C77.6543 40.4336 77.557 40.666 77.3849 40.8372C77.2129 41.0084 76.98 41.1046 76.7373 41.1046H69.0373C68.5355 41.1046 68.1182 40.6927 68.1182 40.1909ZM80.7055 39.2727H80.8655C81.3673 39.2727 81.7836 39.6836 81.7836 40.1909C81.7836 40.6927 81.3673 41.1046 80.8655 41.1046H80.7055C80.4675 41.0971 80.2419 40.9973 80.0762 40.8263C79.9106 40.6554 79.8179 40.4267 79.8179 40.1886C79.8179 39.9506 79.9106 39.7219 80.0762 39.551C80.2419 39.38 80.4675 39.2802 80.7055 39.2727ZM49.9236 107.185C49.9236 106.683 50.3355 106.266 50.8418 106.266H54.7409C55.2427 106.266 55.6591 106.683 55.6591 107.185C55.6591 107.686 55.2427 108.103 54.7409 108.103H50.8427C50.3355 108.103 49.9236 107.686 49.9236 107.185ZM57.7955 107.185C57.7955 106.683 58.2064 106.266 58.7082 106.266H59.75C60.2573 106.266 60.6682 106.683 60.6682 107.185C60.6682 107.686 60.2573 108.103 59.75 108.103H58.7082C58.4658 108.101 58.2341 108.003 58.0632 107.831C57.8924 107.659 57.7962 107.427 57.7955 107.185ZM34.4309 92.8391C34.4309 93.3418 34.02 93.7582 33.5127 93.7582H29.6136C29.1118 93.7582 28.6955 93.3418 28.6955 92.84C28.6955 92.3373 29.1118 91.9218 29.6136 91.9218H33.5127C34.02 91.9218 34.4309 92.3364 34.4309 92.8391ZM26.5591 92.8391C26.5591 93.3418 26.1482 93.7582 25.6464 93.7582H24.6055C24.0982 93.7582 23.6873 93.3418 23.6873 92.84C23.6873 92.3373 24.0982 91.9218 24.6055 91.9218H25.6464C26.1482 91.9218 26.5591 92.3364 26.5591 92.8391ZM41.0582 20.5155C41.0582 21.0173 40.6464 21.4336 40.14 21.4336H39.9855C39.4773 21.4336 39.0664 21.0173 39.0664 20.5155C39.0664 20.0136 39.4773 19.5973 39.9845 19.5973H40.1391C40.6464 19.5973 41.0573 20.0136 41.0573 20.5155H41.0582ZM36.9309 20.5155C36.9309 21.0173 36.5191 21.4336 36.0118 21.4336H32.1136C31.6109 21.4336 31.1955 21.0173 31.1955 20.5155C31.1955 20.0136 31.6109 19.5973 32.1136 19.5973H36.0118C36.5191 19.5973 36.9309 20.0136 36.9309 20.5155ZM29.0582 20.5155C29.0582 21.0173 28.6473 21.4336 28.1455 21.4336H27.1045C26.5973 21.4336 26.1864 21.0173 26.1864 20.5155C26.1864 20.0136 26.5973 19.5973 27.1045 19.5973H28.1455C28.6473 19.5973 29.0582 20.0136 29.0582 20.5155ZM97.3091 96.1718C97.3091 96.6736 96.8982 97.09 96.3909 97.09H96.2364C95.7291 97.09 95.3182 96.6736 95.3182 96.1718C95.3182 95.67 95.7291 95.2536 96.2364 95.2536H96.3909C96.8982 95.2536 97.3091 95.67 97.3091 96.1718ZM93.1818 96.1718C93.1818 96.6736 92.77 97.09 92.2636 97.09H88.3636C87.8618 97.09 87.4455 96.6736 87.4455 96.1718C87.4455 95.67 87.8618 95.2536 88.3636 95.2536H92.2618C92.7691 95.2536 93.18 95.67 93.18 96.1718H93.1818ZM85.31 96.1718C85.31 96.6736 84.8991 97.09 84.3973 97.09H77.7882C77.28 97.09 76.87 96.6736 76.87 96.1718C76.87 95.67 77.28 95.2536 77.7882 95.2536H84.3973C84.8991 95.2536 85.31 95.67 85.31 96.1718ZM108.925 50.1973C108.925 50.7 108.514 51.1155 108.006 51.1155H107.852C107.345 51.1155 106.934 50.7 106.934 50.1973C106.934 49.6955 107.345 49.2791 107.852 49.2791H108.006C108.514 49.2791 108.925 49.6955 108.925 50.1973ZM104.797 50.1973C104.797 50.7 104.385 51.1155 103.879 51.1155H99.98C99.4782 51.1155 99.0618 50.7 99.0618 50.1973C99.0618 49.6955 99.4782 49.2791 99.98 49.2791H103.878C104.385 49.2791 104.797 49.6955 104.797 50.1973ZM96.9255 50.1973C96.9255 50.7 96.5145 51.1155 96.0127 51.1155H94.9709C94.4636 51.1155 94.0527 50.7 94.0527 50.1973C94.0527 49.6955 94.4636 49.2791 94.9709 49.2791H96.0127C96.5145 49.2791 96.9255 49.6955 96.9255 50.1973ZM77.9655 12.3673C77.9655 12.8691 77.5536 13.2855 77.0518 13.2855H76.8918C76.39 13.2855 75.9736 12.8691 75.9736 12.3673C75.9736 11.8655 76.39 11.4491 76.8918 11.4491H77.0518C77.5536 11.4491 77.9655 11.8655 77.9655 12.3673ZM84.5109 12.3673C84.5109 12.8691 84.1 13.2855 83.5982 13.2855H80.6082C80.1064 13.2855 79.69 12.8691 79.69 12.3673C79.69 11.8655 80.1064 11.4491 80.6082 11.4491H83.5982C84.1 11.4491 84.5109 11.8655 84.5109 12.3673ZM73.8373 12.3673C73.8373 12.8691 73.4255 13.2855 72.9236 13.2855H62.6436C62.1364 13.2855 61.7255 12.8691 61.7255 12.3673C61.7255 11.8655 62.1364 11.4491 62.6436 11.4491H72.9236C73.4255 11.4491 73.8373 11.8655 73.8373 12.3673ZM19.2118 52.9146H26.49C26.9973 52.9146 27.4082 53.3255 27.4082 53.8273C27.4082 54.0708 27.3114 54.3043 27.1393 54.4765C26.9671 54.6487 26.7335 54.7455 26.49 54.7455H19.2118C18.9683 54.7455 18.7348 54.6487 18.5626 54.4765C18.3904 54.3043 18.2936 54.0708 18.2936 53.8273C18.2951 53.5847 18.3924 53.3526 18.5645 53.1816C18.7365 53.0105 18.9692 52.9145 19.2118 52.9146ZM16.1573 53.8273C16.1573 54.07 16.0612 54.3029 15.89 54.4749C15.7187 54.647 15.4864 54.7443 15.2436 54.7455H9.6C9.36208 54.738 9.13641 54.6382 8.97077 54.4672C8.80512 54.2963 8.71249 54.0676 8.71249 53.8296C8.71249 53.5915 8.80512 53.3628 8.97077 53.1919C9.13641 53.0209 9.36208 52.9211 9.6 52.9136H15.2455C15.7464 52.9136 16.1573 53.3255 16.1573 53.8273ZM29.5445 53.8273C29.546 53.5847 29.6434 53.3526 29.8154 53.1816C29.9874 53.0105 30.2202 52.9145 30.4627 52.9146H32.1882C32.69 52.9146 33.1064 53.3255 33.1064 53.8273C33.1064 54.3345 32.69 54.7455 32.1882 54.7455H30.4636C30.2201 54.7455 29.9866 54.6487 29.8144 54.4765C29.6422 54.3043 29.5445 54.0708 29.5445 53.8273Z" fill="#443792"/>
  <path d="M72.8436 58.1455H39.0409V40.8818C39.0409 31.5636 46.6227 23.9818 55.9427 23.9818C65.2627 23.9818 72.8436 31.5636 72.8436 40.8818V58.1455ZM45.5236 51.6636H66.36V40.8818C66.36 35.1382 61.6873 30.4636 55.9418 30.4636C50.1982 30.4636 45.5236 35.1382 45.5236 40.8818V51.6636Z" fill="#386384"/>
  <path d="M71.2018 51.8773H72.8473V40.8836C72.8473 35.8109 70.6018 31.2563 67.0527 28.1609C69.7331 31.2285 71.2076 35.1654 71.2018 39.2391V51.8773Z" fill="#2F4867"/>
  <path d="M80.0318 55.7727V82.6672C80.0316 84.4874 79.3083 86.233 78.0212 87.52C76.734 88.807 74.9884 89.53 73.1682 89.53H38.7164C36.8962 89.5297 35.1506 88.8065 33.8636 87.5193C32.5766 86.2322 31.8536 84.4865 31.8536 82.6663V55.7727C31.8539 53.9525 32.5771 52.2069 33.8643 50.92C35.1514 49.633 36.8971 48.91 38.7173 48.91H73.17C74.9903 48.91 76.7361 49.6331 78.0233 50.9203C79.3105 52.2075 80.0336 53.9533 80.0336 55.7736L80.0318 55.7727Z" fill="#FAD553"/>
  <path d="M58.4491 70.4273L59.5782 75.3809C59.7145 75.9764 59.2618 76.5446 58.6509 76.5446H53.2336C52.6227 76.5446 52.17 75.9764 52.3064 75.3809L53.4354 70.4236C53.4731 70.2538 53.4636 70.0768 53.408 69.912C53.3524 69.7471 53.2528 69.6006 53.12 69.4882C52.6491 69.0829 52.2712 68.5806 52.0123 68.0158C51.7535 67.4509 51.6196 66.8368 51.62 66.2155C51.621 65.6056 51.751 65.0029 52.0013 64.4468C52.2516 63.8907 52.6166 63.3938 53.0724 62.9886C53.5282 62.5834 54.0645 62.2792 54.6461 62.0958C55.2277 61.9125 55.8415 61.8541 56.4473 61.9246C58.4136 62.1473 60.0118 63.7427 60.2364 65.7082C60.3196 66.4112 60.2288 67.124 59.972 67.7837C59.7152 68.4435 59.3002 69.03 58.7636 69.4918C58.6311 69.6042 58.5318 69.7506 58.4763 69.9153C58.4209 70.08 58.4115 70.2576 58.4491 70.4273Z" fill="#386384"/>
  <path d="M59.5727 75.38C59.6062 75.5189 59.6076 75.6636 59.5767 75.8031C59.5458 75.9426 59.4835 76.0732 59.3945 76.1849C59.3055 76.2967 59.1922 76.3867 59.0632 76.4481C58.9342 76.5094 58.7929 76.5406 58.65 76.5391H53.2364C52.6209 76.5391 52.17 75.9755 52.3036 75.38L52.3127 75.3182H57.4309C58.0355 75.3182 58.4873 74.7545 58.3536 74.16L57.2264 69.2055C57.1446 68.8573 57.2664 68.4982 57.5436 68.2627C58.0794 67.8027 58.4934 67.2177 58.7492 66.5595C59.0049 65.9013 59.0945 65.1902 59.01 64.4891C58.9325 63.8179 58.6973 63.1747 58.3236 62.6118C59.3591 63.2991 60.0973 64.4273 60.2409 65.7091C60.3214 66.4124 60.2289 67.1248 59.9716 67.7843C59.7144 68.4438 59.3 69.0306 58.7646 69.4936C58.4973 69.73 58.3736 70.0782 58.4464 70.4264L59.5727 75.38Z" fill="#2F4867"/>
  <path d="M77.1664 50.1973H77.1491C77.9592 51.3464 78.3927 52.7186 78.39 54.1245V81.0209C78.3893 82.841 77.6659 84.5864 76.3789 85.8734C75.0919 87.1604 73.3465 87.8838 71.5264 87.8845H37.0682C35.6494 87.8847 34.2653 87.4462 33.1055 86.6291C33.7387 87.5272 34.579 88.2597 35.5552 88.7644C36.5313 89.2692 37.6147 89.5315 38.7136 89.5291H73.17C74.9901 89.5284 76.7355 88.805 78.0225 87.518C79.3096 86.2309 80.0329 84.4856 80.0337 82.6654V55.7709C80.0328 54.6809 79.7722 53.6069 79.2734 52.6377C78.7746 51.6686 78.052 50.8323 77.1655 50.1982L77.1664 50.1973Z" fill="#FAB941"/>
  <path d="M50.5218 27.6573C50.3329 27.6568 50.1502 27.5905 50.005 27.4696C49.8598 27.3488 49.7614 27.181 49.7267 26.9954C49.692 26.8097 49.7232 26.6177 49.8149 26.4526C49.9067 26.2875 50.0531 26.1596 50.2291 26.0909C52.0512 25.385 53.9887 25.0243 55.9427 25.0273C56.1576 25.0273 56.3636 25.1126 56.5155 25.2645C56.6674 25.4164 56.7527 25.6225 56.7527 25.8373C56.7527 26.0521 56.6674 26.2582 56.5155 26.4101C56.3636 26.562 56.1576 26.6473 55.9427 26.6473C54.1892 26.6445 52.4505 26.9682 50.8155 27.6018C50.7219 27.6383 50.6223 27.6571 50.5218 27.6573ZM41.8764 36.3528C41.745 36.3527 41.6156 36.3207 41.4993 36.2596C41.383 36.1984 41.2833 36.1099 41.2088 36.0017C41.1343 35.8934 41.0872 35.7687 41.0716 35.6383C41.0559 35.5078 41.0723 35.3755 41.1191 35.2528C42.3288 32.1068 44.4991 29.422 47.3218 27.58C47.5021 27.4629 47.7214 27.4221 47.9317 27.4666C48.142 27.5112 48.326 27.6375 48.4432 27.8178C48.5604 27.998 48.6011 28.2174 48.5566 28.4277C48.512 28.638 48.3857 28.8219 48.2055 28.9391C45.6698 30.5932 43.7198 33.0044 42.6327 35.83C42.5742 35.9836 42.4705 36.1157 42.3353 36.209C42.2001 36.3024 42.0407 36.3525 41.8764 36.3528ZM40.8964 41.6928C40.6817 41.6925 40.4759 41.6071 40.3242 41.4552C40.1725 41.3033 40.0873 41.0974 40.0873 40.8828C40.0873 39.7373 40.21 38.5946 40.4527 37.4873C40.4755 37.3834 40.5186 37.285 40.5794 37.1977C40.6403 37.1104 40.7177 37.0359 40.8073 36.9786C40.8969 36.9212 40.9969 36.8821 41.1017 36.8634C41.2064 36.8447 41.3138 36.8468 41.4177 36.8696C41.5217 36.8924 41.6201 36.9354 41.7074 36.9963C41.7946 37.0571 41.8691 37.1345 41.9265 37.2241C41.9838 37.3137 42.023 37.4138 42.0417 37.5185C42.0604 37.6233 42.0583 37.7307 42.0355 37.8346C41.8168 38.8359 41.7068 39.8579 41.7073 40.8828C41.7073 40.9892 41.6863 41.0946 41.6455 41.1929C41.6048 41.2913 41.545 41.3806 41.4697 41.4558C41.3944 41.5311 41.305 41.5907 41.2066 41.6314C41.1082 41.672 41.0028 41.6929 40.8964 41.6928Z" fill="#4A749B"/>
  <path d="M35.87 58.4763V68.2418C35.8757 68.3736 35.8546 68.5051 35.8081 68.6285C35.7616 68.7519 35.6906 68.8647 35.5994 68.9599C35.5082 69.0552 35.3986 69.131 35.2773 69.1827C35.156 69.2345 35.0255 69.2612 34.8936 69.2612C34.7617 69.2612 34.6312 69.2345 34.5099 69.1827C34.3886 69.131 34.2791 69.0552 34.1878 68.9599C34.0966 68.8647 34.0256 68.7519 33.9791 68.6285C33.9326 68.5051 33.9116 68.3736 33.9173 68.2418V58.4763C33.9281 58.2247 34.0357 57.9869 34.2177 57.8127C34.3996 57.6385 34.6417 57.5412 34.8936 57.5412C35.1455 57.5412 35.3877 57.6385 35.5696 57.8127C35.7515 57.9869 35.8591 58.2247 35.87 58.4763ZM35.87 72.1554V75.5673C35.87 76.1018 35.4318 76.5482 34.8891 76.5482C34.6304 76.5458 34.3832 76.4414 34.201 76.2577C34.0189 76.074 33.9166 75.8259 33.9164 75.5673V72.1554C33.9272 71.9038 34.0348 71.666 34.2167 71.4918C34.3987 71.3176 34.6408 71.2203 34.8927 71.2203C35.1446 71.2203 35.3868 71.3176 35.5687 71.4918C35.7506 71.666 35.8591 71.9038 35.87 72.1554ZM41.0591 51.8773H50.8236C50.9554 51.8716 51.0869 51.8926 51.2104 51.9391C51.3338 51.9856 51.4465 52.0566 51.5417 52.1478C51.637 52.2391 51.7128 52.3486 51.7646 52.4699C51.8163 52.5912 51.843 52.7217 51.843 52.8536C51.843 52.9855 51.8163 53.116 51.7646 53.2373C51.7128 53.3586 51.637 53.4682 51.5417 53.5594C51.4465 53.6506 51.3338 53.7216 51.2104 53.7681C51.0869 53.8146 50.9554 53.8357 50.8236 53.83H41.0591C40.8074 53.8191 40.5697 53.7115 40.3954 53.5296C40.2212 53.3477 40.124 53.1055 40.124 52.8536C40.124 52.6017 40.2212 52.3596 40.3954 52.1776C40.5697 51.9957 40.8074 51.8881 41.0591 51.8773ZM54.7382 51.8773H58.1491C58.6845 51.8773 59.13 52.3145 59.13 52.8573C59.13 53.3927 58.6845 53.83 58.1491 53.83H54.7382C54.4865 53.8191 54.2488 53.7115 54.0745 53.5296C53.9003 53.3477 53.803 53.1055 53.803 52.8536C53.803 52.6017 53.9003 52.3596 54.0745 52.1776C54.2488 51.9957 54.4865 51.8881 54.7382 51.8773Z" fill="#FCDE7E"/>
  <path d="M88.1473 80.9455C88.1473 89.2582 81.3864 96.0182 73.0818 96.0182C64.7691 96.0182 58.0091 89.2582 58.0091 80.9455C58.0091 72.6482 64.7691 65.8873 73.0818 65.8873C81.3864 65.8873 88.1473 72.6482 88.1473 80.9455Z" fill="#386384"/>
  <path d="M79.3945 70.2491C79.3275 70.2492 79.2617 70.2317 79.2036 70.1982C77.3384 69.1353 75.2286 68.5763 73.0818 68.5763C72.9799 68.5763 72.8822 68.5359 72.8102 68.4639C72.7382 68.3918 72.6977 68.2941 72.6977 68.1923C72.6977 68.0904 72.7382 67.9927 72.8102 67.9207C72.8822 67.8486 72.9799 67.8082 73.0818 67.8082C75.3627 67.8082 77.6109 68.4036 79.5845 69.5309C79.658 69.573 79.7156 69.6383 79.7482 69.7165C79.7808 69.7947 79.7867 69.8814 79.765 69.9633C79.7432 70.0452 79.695 70.1176 79.6278 70.1693C79.5607 70.221 79.4793 70.249 79.3945 70.2491ZM65.46 71.1036C65.3792 71.1039 65.3003 71.0787 65.2346 71.0316C65.169 70.9844 65.1199 70.9177 65.0944 70.841C65.0689 70.7643 65.0683 70.6815 65.0926 70.6044C65.117 70.5274 65.1651 70.4599 65.23 70.4118C66.9653 69.119 68.9928 68.2744 71.1327 67.9527C71.3418 67.9254 71.5382 68.0663 71.5691 68.2754C71.5839 68.3762 71.5582 68.4787 71.4975 68.5606C71.4368 68.6424 71.3462 68.6968 71.2454 68.7118C69.2309 69.0149 67.3224 69.8106 65.6891 71.0282C65.623 71.0777 65.5426 71.1036 65.46 71.1036ZM60.3127 81.33C60.2623 81.33 60.2123 81.32 60.1657 81.3007C60.1191 81.2814 60.0768 81.253 60.0411 81.2173C60.0055 81.1816 59.9772 81.1392 59.958 81.0925C59.9388 81.0459 59.929 80.9959 59.9291 80.9454C59.9291 77.5582 61.2209 74.34 63.5673 71.8836C63.6017 71.8459 63.6434 71.8155 63.6898 71.7941C63.7362 71.7727 63.7864 71.7608 63.8375 71.7591C63.8885 71.7574 63.9394 71.7659 63.9872 71.7841C64.0349 71.8023 64.0785 71.8299 64.1155 71.8652C64.1524 71.9005 64.1819 71.9428 64.2023 71.9897C64.2226 72.0365 64.2334 72.087 64.234 72.1381C64.2346 72.1891 64.225 72.2398 64.2057 72.2872C64.1864 72.3345 64.1579 72.3775 64.1218 72.4136C61.9206 74.7081 60.6933 77.7658 60.6973 80.9454C60.6974 80.996 60.6875 81.046 60.6682 81.0927C60.649 81.1395 60.6206 81.1819 60.5849 81.2176C60.5492 81.2534 60.5067 81.2817 60.46 81.301C60.4133 81.3202 60.3633 81.3301 60.3127 81.33ZM62.02 87.7027C61.9525 87.7027 61.8862 87.6849 61.8277 87.651C61.7693 87.6172 61.7209 87.5686 61.6873 87.51C60.845 86.0574 60.2918 84.4555 60.0582 82.7927C60.0511 82.7428 60.0539 82.692 60.0665 82.6432C60.0791 82.5944 60.1012 82.5485 60.1315 82.5083C60.1618 82.468 60.1998 82.4341 60.2432 82.4085C60.2866 82.3829 60.3346 82.3661 60.3845 82.3591C60.4346 82.3514 60.4858 82.3538 60.5349 82.3662C60.5841 82.3786 60.6303 82.4006 60.6708 82.4311C60.7113 82.4616 60.7452 82.4999 60.7707 82.5438C60.7962 82.5876 60.8126 82.6361 60.8191 82.6864C61.04 84.2554 61.5564 85.75 62.3527 87.1254C62.3866 87.1838 62.4045 87.2501 62.4046 87.3176C62.4047 87.3852 62.387 87.4515 62.3533 87.51C62.3195 87.5684 62.2709 87.617 62.2124 87.6507C62.1539 87.6843 62.0875 87.7029 62.02 87.7027Z" fill="#FF6C77"/>
  <path d="M88.1473 80.9455C88.1473 89.2582 81.3864 96.0182 73.0818 96.0182C68.4636 96.0182 64.3309 93.9364 61.5655 90.6637C64.2843 92.9887 67.7453 94.2641 71.3227 94.2591C79.6273 94.2591 86.3882 87.4991 86.3882 79.1864C86.3882 75.4837 85.0427 72.0873 82.8155 69.46C86.0727 72.2255 88.1473 76.3509 88.1473 80.9455Z" fill="#2F4867"/>
  <path d="M73.1782 73.9373C73.7964 73.9373 74.4 74.0236 74.9854 74.1945C75.5472 74.3532 76.0761 74.6109 76.5473 74.9554C77.0018 75.2909 77.3673 75.7063 77.6445 76.2009C77.9209 76.6936 78.0591 77.2645 78.0591 77.91C78.0591 78.4372 77.9773 78.8945 77.8136 79.2827C77.6545 79.661 77.4407 80.0138 77.1791 80.33C76.9236 80.6409 76.6436 80.9236 76.34 81.18C76.0373 81.4372 75.7491 81.6809 75.4809 81.9109C75.2109 82.1418 74.9727 82.3827 74.7682 82.6327C74.5735 82.8638 74.4473 83.1446 74.4036 83.4436C74.3798 83.5829 74.3178 83.7129 74.2245 83.8191C74.181 83.8702 74.1265 83.9109 74.0652 83.9383C74.0038 83.9656 73.9371 83.979 73.87 83.9773H72.3673C72.2218 83.9773 72.0945 83.9245 71.9827 83.8191C71.9296 83.773 71.8884 83.7148 71.8624 83.6495C71.8365 83.5842 71.8266 83.5136 71.8336 83.4436C71.8609 82.9291 71.9682 82.4782 72.16 82.0891C72.3509 81.7018 72.5809 81.3518 72.8509 81.0418C73.1218 80.7327 73.4109 80.4527 73.7218 80.2027C74.0309 79.9527 74.3182 79.7118 74.5818 79.4809C74.8445 79.25 75.0609 79.02 75.2336 78.7891C75.4036 78.5591 75.4909 78.3045 75.4909 78.0282C75.4909 77.5282 75.28 77.1163 74.8582 76.7927C74.4354 76.47 73.8764 76.3091 73.1782 76.3091C72.0582 76.3091 71.2354 76.8691 70.7073 77.9882C70.6418 78.1336 70.5727 78.2427 70.5 78.3154C70.4273 78.3882 70.3054 78.4236 70.1345 78.4236H68.5327C68.4194 78.4257 68.3097 78.3832 68.2273 78.3054C68.1843 78.2649 68.1506 78.2156 68.1285 78.1608C68.1064 78.1061 68.0963 78.0472 68.0991 77.9882C68.1118 77.5282 68.2536 77.0563 68.5236 76.5754C68.7936 76.0945 69.1554 75.66 69.6109 75.2709C70.0664 74.8818 70.5982 74.5627 71.2109 74.3127C71.8358 74.0602 72.5042 73.9327 73.1782 73.9373ZM73.9691 85.1627C74.1145 85.1627 74.2382 85.2154 74.3436 85.3209C74.3944 85.3692 74.4347 85.4275 74.4619 85.4921C74.4891 85.5567 74.5027 85.6262 74.5018 85.6963V87.4354C74.5027 87.5055 74.4891 87.5751 74.4619 87.6397C74.4347 87.7043 74.3944 87.7626 74.3436 87.8109C74.2954 87.8615 74.2372 87.9017 74.1728 87.9289C74.1084 87.9561 74.039 87.9698 73.9691 87.9691H72.2691C72.1989 87.9698 72.1292 87.9562 72.0645 87.929C71.9998 87.9018 71.9413 87.8616 71.8927 87.8109C71.8423 87.7623 71.8024 87.7039 71.7754 87.6394C71.7483 87.5748 71.7347 87.5054 71.7354 87.4354V85.6963C71.7354 85.5518 71.7882 85.4263 71.8927 85.3209C71.9414 85.2704 71.9999 85.2303 72.0646 85.2031C72.1293 85.1759 72.1989 85.1622 72.2691 85.1627H73.9691Z" fill="white"/>
</svg>