<svg xmlns="http://www.w3.org/2000/svg" width="120" height="120" viewBox="0 0 120 120" fill="none">
  <path d="M60 37.5C53.8125 37.5 48.75 42.5625 48.75 48.75V60H56.25V48.75C56.25 46.6875 57.9375 45 60 45C62.0625 45 63.75 46.6875 63.75 48.75V60H71.25V48.75C71.25 42.5625 66.1875 37.5 60 37.5Z" fill="#443792"/>
  <path d="M88.9489 30.6153C74.7529 16.6297 52.9047 15.0476 36.978 25.7666L36.9319 19.6192C36.924 18.5838 36.0784 17.751 35.043 17.7585L31.293 17.7858C30.2573 17.7933 29.424 18.6393 29.4319 19.6747L29.5369 33.7095C29.5478 35.2275 30.4725 36.588 31.8769 37.1576C33.285 37.7272 34.8927 37.3957 35.9584 36.3135C49.0268 23.0602 70.4337 22.9008 83.6866 35.9583C93.8029 45.9255 96.5648 60.9123 90.8172 73.7644C90.408 74.6793 90.7433 75.7455 91.6358 76.2018L94.9823 77.9119C95.9307 78.3964 97.1299 78.006 97.5702 77.0366C104.721 61.2836 101.371 42.852 88.9489 30.6153ZM88.1232 82.8423C86.7132 82.2727 85.1074 82.6042 84.0417 83.6865C70.9789 96.945 49.5683 97.1006 36.3135 84.0416C26.1972 74.0745 23.4353 59.0876 29.1829 46.2356C29.592 45.3206 29.2568 44.2545 28.3643 43.7981L25.0178 42.0881C24.0694 41.6036 22.8702 41.994 22.4299 42.9633C15.279 58.716 18.6289 77.1476 31.0512 89.3842C45.2472 103.37 67.0954 104.95 83.022 94.233L83.0682 100.38C83.076 101.416 83.9217 102.249 84.9567 102.241L88.707 102.214C89.7428 102.206 90.576 101.36 90.5682 100.325L90.4632 86.2901C90.4523 84.7725 89.5275 83.412 88.1232 82.8423Z" fill="#443792"/>
  <path d="M71.25 78.75H48.75C46.6789 78.75 45 77.0711 45 75V56.25C45 54.1789 46.6789 52.5 48.75 52.5H71.25C73.3211 52.5 75 54.1789 75 56.25V75C75 77.0711 73.3211 78.75 71.25 78.75Z" fill="#CEC7F5"/>
</svg>